<?xml version="1.0" standalone="no"?>
<!DOCTYPE svg PUBLIC "-//W3C//DTD SVG 20010904//EN" "http://www.w3.org/TR/2001/REC-SVG-20010904/DTD/svg10.dtd">
<svg xmlns="http://www.w3.org/2000/svg" version="1.0" width="500" height="500" viewBox="0 0 500.000000 500.000000" preserveAspectRatio="xMidYMid meet">
<g transform="translate(0.000000,500.000000) scale(0.100000,-0.100000)" fill="#000000" stroke="none">
<path d="M2761 3489 c-72 -12 -144 -53 -196 -111 l-42 -47 -54 40 c-56 42 -127 78 -195 99 -23 8 -129 14 -266 17 l-228 5 0 -671 0 -671 528 0 c290 0 554 4 588 9 127 19 242 101 293 211 23 50 26 67 26 175 0 104 -3 125 -22 160 -37 70 -98 122 -292 250 -130 86 -196 135 -210 158 -38 63 -20 149 38 179 19 10 86 13 259 14 l234 1 39 31 c22 16 68 56 102 88 l62 59 -90 6 c-132 10 -511 8 -574 -2z m-513 -221 c183 -68 280 -269 227 -471 -18 -70 -49 -120 -104 -170 -69 -63 -119 -79 -253 -85 l-118 -4 0 375 c0 291 3 377 13 381 24 10 183 -7 235 -26z m262 -222 c31 -61 84 -107 278 -243 171 -119 208 -152 228 -200 18 -42 18 -115 0 -156 -17 -41 -62 -81 -105 -96 -39 -13 -740 -14 -781 -1 -18 6 -5 8 46 9 215 3 410 151 474 359 33 107 30 122 -40 172 -105 76 -149 154 -150 261 0 89 14 97 21 12 3 -43 14 -86 29 -117z"/>
<path d="M1839 1864 c-38 -16 -69 -58 -69 -96 0 -46 35 -85 97 -108 67 -25 93 -45 93 -72 0 -57 -58 -82 -125 -53 -45 18 -65 14 -65 -15 0 -27 58 -50 127 -50 49 0 59 4 89 34 29 29 34 41 34 79 0 59 -20 81 -111 126 -58 28 -75 41 -77 60 -3 15 3 30 14 38 21 15 87 17 113 3 14 -7 23 -5 36 10 17 19 17 20 -26 40 -52 23 -81 24 -130 4z"/>
<path d="M2366 1865 c-58 -21 -88 -46 -113 -95 -72 -140 26 -299 184 -300 55 0 123 25 123 46 0 27 -26 35 -65 18 -72 -30 -156 0 -190 66 -19 38 -19 113 0 151 33 62 131 89 199 54 26 -14 31 -14 44 -1 23 22 8 42 -44 60 -57 19 -86 20 -138 1z"/>
<path d="M2712 1854 c-59 -29 -85 -60 -102 -124 -25 -95 17 -192 102 -234 72 -36 120 -34 188 7 151 90 134 304 -29 362 -61 21 -99 19 -159 -11z m158 -49 c63 -33 92 -157 51 -219 -27 -40 -57 -55 -114 -56 -91 0 -141 54 -142 151 0 65 21 104 68 124 42 19 101 19 137 0z"/>
<path d="M1380 1671 l0 -201 78 0 c96 0 137 11 185 51 54 44 71 82 71 160 0 55 -4 74 -26 106 -39 59 -84 77 -205 81 l-103 4 0 -201z m182 139 c20 -6 48 -24 62 -41 22 -26 26 -40 26 -95 0 -59 -3 -67 -34 -101 -32 -35 -38 -37 -105 -41 l-71 -4 0 139 c0 77 3 143 7 146 10 10 73 8 115 -3z"/>
<path d="M3080 1670 l0 -200 30 0 30 0 0 85 0 85 29 0 c25 0 37 -11 81 -72 64 -89 75 -98 117 -98 38 0 41 9 12 36 -12 10 -42 46 -67 78 l-45 59 28 20 c35 26 57 78 49 115 -16 65 -69 92 -184 92 l-80 0 0 -200z m149 140 c40 -11 51 -24 51 -62 0 -38 -36 -60 -92 -56 l-43 3 -3 57 c-2 47 0 57 15 61 30 8 37 7 72 -3z"/>
<path d="M3440 1672 c0 -109 2 -201 5 -204 3 -3 16 -3 30 0 23 4 24 9 27 81 l3 76 65 5 c82 7 107 21 131 75 18 41 18 46 3 85 -24 60 -69 80 -179 80 l-85 0 0 -198z m192 118 c24 -29 23 -65 -2 -90 -15 -15 -33 -20 -75 -20 l-55 0 0 63 c0 35 3 67 8 71 4 4 29 6 56 3 36 -3 55 -11 68 -27z"/>
</g>
</svg>
